<mxfile host="app.diagrams.net" modified="2024-03-20T09:03:34.828Z" agent="Mozilla/5.0 (Windows NT 10.0; Win64; x64) AppleWebKit/537.36 (KHTML, like Gecko) Chrome/117.0.0.0 Safari/537.36" etag="aJxPmf7ebAmO0tIg2Lbg" version="24.0.2" type="device">
  <diagram name="Page-1" id="0YXn6rGNmVyl3grcL1lh">
    <mxGraphModel dx="882" dy="524" grid="0" gridSize="10" guides="1" tooltips="1" connect="1" arrows="1" fold="1" page="0" pageScale="1" pageWidth="827" pageHeight="1169" math="0" shadow="0">
      <root>
        <mxCell id="0" />
        <mxCell id="1" parent="0" />
        <mxCell id="9RiJxgSjbMjk29ciKqk3-11" style="edgeStyle=orthogonalEdgeStyle;rounded=0;orthogonalLoop=1;jettySize=auto;html=1;entryX=0;entryY=0.5;entryDx=0;entryDy=0;" edge="1" parent="1" source="9RiJxgSjbMjk29ciKqk3-1" target="9RiJxgSjbMjk29ciKqk3-2">
          <mxGeometry relative="1" as="geometry" />
        </mxCell>
        <mxCell id="9RiJxgSjbMjk29ciKqk3-1" value="10" style="ellipse;whiteSpace=wrap;html=1;aspect=fixed;" vertex="1" parent="1">
          <mxGeometry x="150" y="330" width="40" height="40" as="geometry" />
        </mxCell>
        <mxCell id="9RiJxgSjbMjk29ciKqk3-12" style="edgeStyle=orthogonalEdgeStyle;rounded=0;orthogonalLoop=1;jettySize=auto;html=1;exitX=1;exitY=0.5;exitDx=0;exitDy=0;entryX=0;entryY=0.5;entryDx=0;entryDy=0;" edge="1" parent="1" source="9RiJxgSjbMjk29ciKqk3-2" target="9RiJxgSjbMjk29ciKqk3-3">
          <mxGeometry relative="1" as="geometry" />
        </mxCell>
        <mxCell id="9RiJxgSjbMjk29ciKqk3-2" value="30" style="ellipse;whiteSpace=wrap;html=1;aspect=fixed;" vertex="1" parent="1">
          <mxGeometry x="250" y="330" width="40" height="40" as="geometry" />
        </mxCell>
        <mxCell id="9RiJxgSjbMjk29ciKqk3-13" style="edgeStyle=orthogonalEdgeStyle;rounded=0;orthogonalLoop=1;jettySize=auto;html=1;exitX=1;exitY=0.5;exitDx=0;exitDy=0;entryX=0;entryY=0.5;entryDx=0;entryDy=0;" edge="1" parent="1" source="9RiJxgSjbMjk29ciKqk3-3" target="9RiJxgSjbMjk29ciKqk3-4">
          <mxGeometry relative="1" as="geometry" />
        </mxCell>
        <mxCell id="9RiJxgSjbMjk29ciKqk3-3" value="30" style="ellipse;whiteSpace=wrap;html=1;aspect=fixed;" vertex="1" parent="1">
          <mxGeometry x="350" y="330" width="40" height="40" as="geometry" />
        </mxCell>
        <mxCell id="9RiJxgSjbMjk29ciKqk3-14" style="edgeStyle=orthogonalEdgeStyle;rounded=0;orthogonalLoop=1;jettySize=auto;html=1;exitX=1;exitY=0.5;exitDx=0;exitDy=0;entryX=0;entryY=0.5;entryDx=0;entryDy=0;" edge="1" parent="1" source="9RiJxgSjbMjk29ciKqk3-4" target="9RiJxgSjbMjk29ciKqk3-5">
          <mxGeometry relative="1" as="geometry" />
        </mxCell>
        <mxCell id="9RiJxgSjbMjk29ciKqk3-4" value="30" style="ellipse;whiteSpace=wrap;html=1;aspect=fixed;" vertex="1" parent="1">
          <mxGeometry x="450" y="330" width="40" height="40" as="geometry" />
        </mxCell>
        <mxCell id="9RiJxgSjbMjk29ciKqk3-5" value="40" style="ellipse;whiteSpace=wrap;html=1;aspect=fixed;" vertex="1" parent="1">
          <mxGeometry x="550" y="330" width="40" height="40" as="geometry" />
        </mxCell>
        <mxCell id="9RiJxgSjbMjk29ciKqk3-8" value="30" style="ellipse;whiteSpace=wrap;html=1;aspect=fixed;strokeColor=#007FFF;" vertex="1" parent="1">
          <mxGeometry x="200" y="240" width="40" height="40" as="geometry" />
        </mxCell>
        <mxCell id="9RiJxgSjbMjk29ciKqk3-10" value="" style="endArrow=classic;html=1;rounded=0;exitX=0.5;exitY=1;exitDx=0;exitDy=0;strokeColor=#007FFF;" edge="1" parent="1" source="9RiJxgSjbMjk29ciKqk3-8">
          <mxGeometry width="50" height="50" relative="1" as="geometry">
            <mxPoint x="240" y="470" as="sourcePoint" />
            <mxPoint x="220" y="350" as="targetPoint" />
          </mxGeometry>
        </mxCell>
        <mxCell id="9RiJxgSjbMjk29ciKqk3-16" style="edgeStyle=orthogonalEdgeStyle;rounded=0;orthogonalLoop=1;jettySize=auto;html=1;strokeColor=#007FFF;" edge="1" parent="1" source="9RiJxgSjbMjk29ciKqk3-15">
          <mxGeometry relative="1" as="geometry">
            <mxPoint x="320" y="350" as="targetPoint" />
          </mxGeometry>
        </mxCell>
        <mxCell id="9RiJxgSjbMjk29ciKqk3-15" value="30" style="ellipse;whiteSpace=wrap;html=1;aspect=fixed;strokeColor=#007FFF;" vertex="1" parent="1">
          <mxGeometry x="300" y="240" width="40" height="40" as="geometry" />
        </mxCell>
        <mxCell id="9RiJxgSjbMjk29ciKqk3-18" style="edgeStyle=orthogonalEdgeStyle;rounded=0;orthogonalLoop=1;jettySize=auto;html=1;strokeColor=#007FFF;" edge="1" parent="1" source="9RiJxgSjbMjk29ciKqk3-17">
          <mxGeometry relative="1" as="geometry">
            <mxPoint x="420" y="350" as="targetPoint" />
          </mxGeometry>
        </mxCell>
        <mxCell id="9RiJxgSjbMjk29ciKqk3-17" value="30" style="ellipse;whiteSpace=wrap;html=1;aspect=fixed;strokeColor=#007FFF;" vertex="1" parent="1">
          <mxGeometry x="400" y="240" width="40" height="40" as="geometry" />
        </mxCell>
        <mxCell id="9RiJxgSjbMjk29ciKqk3-20" style="edgeStyle=orthogonalEdgeStyle;rounded=0;orthogonalLoop=1;jettySize=auto;html=1;strokeColor=#007FFF;" edge="1" parent="1" source="9RiJxgSjbMjk29ciKqk3-19">
          <mxGeometry relative="1" as="geometry">
            <mxPoint x="520" y="350" as="targetPoint" />
          </mxGeometry>
        </mxCell>
        <mxCell id="9RiJxgSjbMjk29ciKqk3-19" value="30" style="ellipse;whiteSpace=wrap;html=1;aspect=fixed;strokeColor=#007FFF;" vertex="1" parent="1">
          <mxGeometry x="500" y="240" width="40" height="40" as="geometry" />
        </mxCell>
        <mxCell id="9RiJxgSjbMjk29ciKqk3-21" value="位置1" style="text;html=1;align=center;verticalAlign=middle;resizable=0;points=[];autosize=1;strokeColor=none;fillColor=none;" vertex="1" parent="1">
          <mxGeometry x="195" y="358" width="50" height="30" as="geometry" />
        </mxCell>
        <mxCell id="9RiJxgSjbMjk29ciKqk3-22" value="位置2" style="text;html=1;align=center;verticalAlign=middle;resizable=0;points=[];autosize=1;strokeColor=none;fillColor=none;" vertex="1" parent="1">
          <mxGeometry x="295" y="358" width="50" height="30" as="geometry" />
        </mxCell>
        <mxCell id="9RiJxgSjbMjk29ciKqk3-23" value="位置3" style="text;html=1;align=center;verticalAlign=middle;resizable=0;points=[];autosize=1;strokeColor=none;fillColor=none;" vertex="1" parent="1">
          <mxGeometry x="395" y="358" width="50" height="30" as="geometry" />
        </mxCell>
        <mxCell id="9RiJxgSjbMjk29ciKqk3-24" value="位置4" style="text;html=1;align=center;verticalAlign=middle;resizable=0;points=[];autosize=1;strokeColor=none;fillColor=none;" vertex="1" parent="1">
          <mxGeometry x="495" y="358" width="50" height="30" as="geometry" />
        </mxCell>
      </root>
    </mxGraphModel>
  </diagram>
</mxfile>
